<svg xmlns="http://www.w3.org/2000/svg" width="511.451" height="512.175" viewBox="0 0 511.451 512.175">
  <g id="_017-rain" data-name="017-rain" transform="translate(-0.361 0.001)">
    <g id="Group_17" data-name="Group 17">
      <path id="Path_97" data-name="Path 97" d="M117.376,448.174a21.018,21.018,0,0,1-19.925-27.646l10.667-32a21,21,0,1,1,39.845,13.281l-10.667,32a21.012,21.012,0,0,1-19.92,14.365Z" fill="#f1ebeb"/>
      <path id="Path_98" data-name="Path 98" d="M373.376,448.174a21.018,21.018,0,0,1-19.925-27.646l10.667-32a21,21,0,1,1,39.845,13.281l-10.667,32a21.012,21.012,0,0,1-19.92,14.365Z" fill="#f1ebeb"/>
      <path id="Path_99" data-name="Path 99" d="M160.042,512.174a21.018,21.018,0,0,1-19.925-27.646l10.667-32a21,21,0,1,1,39.845,13.281l-10.667,32A21.011,21.011,0,0,1,160.042,512.174Z" fill="#f1ebeb"/>
      <path id="Path_100" data-name="Path 100" d="M288.042,512.174a21.018,21.018,0,0,1-19.925-27.646l10.667-32a21,21,0,1,1,39.845,13.281l-10.667,32A21.011,21.011,0,0,1,288.042,512.174Z" fill="#f1ebeb"/>
      <path id="Path_101" data-name="Path 101" d="M504.335,230.535c-50.434-43.005-49.954-120.395,0-162.991a21.008,21.008,0,0,0,.005-31.955C420.94-35.571,291.9,5.4,263.836,110.367A149,149,0,0,0,504.342,262.488,21.008,21.008,0,0,0,504.335,230.535Z" fill="#f1ebeb"/>
    </g>
    <path id="Path_102" data-name="Path 102" d="M399.338,215.589C368.582,107.664,232.047,70.448,151.111,150.712,70.27,143.444.369,207.15.369,288.5a137.624,137.624,0,0,0,23.685,77.422,21.127,21.127,0,0,0,1.29,1.7A106.141,106.141,0,0,0,106.709,405.5h309.33a95.778,95.778,0,0,0,95.67-95.67c0-60.908-55.425-104.412-112.371-94.241Z" fill="#949ed6"/>
    <path id="Path_103" data-name="Path 103" d="M240.583,223.41c-22.92-83.1-128.013-94.43-191.6-40.194A138.368,138.368,0,0,0,23.262,364.743a9.761,9.761,0,0,0,2.812,3.741A106.132,106.132,0,0,0,106.709,405.5h74.33v-21c0-21.964,9.487-42,26.714-56.407,30.925-25.868,43.505-65.981,32.83-104.684Z" fill="#9da9de"/>
    <path id="Path_104" data-name="Path 104" d="M504.288,273.388c-22.374-54.172-83.261-72.686-130.509-49.4-37.893,18.679-23.369,76.4,18.959,74.875a53.563,53.563,0,0,1,55.192,60.495,21.115,21.115,0,0,0,11.392,22.2l13.538,6.707,10.687-10.644C511.427,349.854,519.375,309.914,504.288,273.388Z" fill="#9da9de"/>
    <path id="Path_105" data-name="Path 105" d="M245.376,458.841A21.018,21.018,0,0,1,225.451,431.2l22.787-68.359h-2.864a21.007,21.007,0,0,1-20.592-25.118l10.667-53.333a21,21,0,0,1,41.184,8.236l-5.643,28.215h6.384A21.01,21.01,0,0,1,297.3,348.477l-32,96a21.013,21.013,0,0,1-19.92,14.364Z" fill="#ffe773"/>
  </g>
</svg>
