<svg xmlns="http://www.w3.org/2000/svg" width="554" height="554" viewBox="0 0 554 554">
  <g id="Group_47" data-name="Group 47" transform="translate(-6975 -122)">
    <g id="_014-rain" data-name="014-rain" transform="translate(6996 143.611)">
      <g id="Group_14" data-name="Group 14">
        <path id="Path_78" data-name="Path 78" d="M117.014,426.061a21.018,21.018,0,0,1-19.925-27.647l10.667-32A21,21,0,0,1,147.6,379.7l-10.667,32a21.008,21.008,0,0,1-19.919,14.365Z" fill="#f1ebeb"/>
        <path id="Path_79" data-name="Path 79" d="M245.014,426.061a21.018,21.018,0,0,1-19.925-27.647l10.667-32A21,21,0,1,1,275.6,379.7l-10.667,32a21.008,21.008,0,0,1-19.919,14.365Z" fill="#f1ebeb"/>
        <path id="Path_80" data-name="Path 80" d="M373.014,426.061a21.018,21.018,0,0,1-19.925-27.647l10.667-32A21,21,0,1,1,403.6,379.7l-10.667,32a21.008,21.008,0,0,1-19.919,14.365Z" fill="#f1ebeb"/>
        <path id="Path_81" data-name="Path 81" d="M159.681,490.061a21.018,21.018,0,0,1-19.925-27.647l10.667-32A21,21,0,0,1,190.267,443.7l-10.667,32a21.008,21.008,0,0,1-19.919,14.365Z" fill="#f1ebeb"/>
        <path id="Path_82" data-name="Path 82" d="M287.681,490.061a21.018,21.018,0,0,1-19.925-27.647l10.667-32A21,21,0,1,1,318.267,443.7l-10.667,32a21.008,21.008,0,0,1-19.919,14.365Z" fill="#f1ebeb"/>
      </g>
      <path id="Path_83" data-name="Path 83" d="M362.344,21.389c-82.159,0-149,66.841-149,149,0,82.512,67.017,149.039,149.152,149.039,80.808,0,148.848-65.54,148.848-149.039,0-82.159-66.841-149-149-149Z" fill="#ffe773"/>
      <path id="Path_84" data-name="Path 84" d="M493.277,99.235l-4.6-8.451-9.406-2.032C354.4,61.781,256.112,194.214,316.742,305.543l4.6,8.451,9.406,2.032a148.538,148.538,0,0,0,125.2-29.728c57.934-46.758,70.5-126.145,37.326-187.063Z" fill="#ffec8f"/>
      <path id="Path_85" data-name="Path 85" d="M398.977,193.476C368.221,85.551,231.686,48.335,150.75,128.6,69.908,121.332.008,185.037.008,266.389a137.624,137.624,0,0,0,23.685,77.422,21.127,21.127,0,0,0,1.29,1.7,106.141,106.141,0,0,0,81.365,37.875h309.33a95.778,95.778,0,0,0,95.67-95.67c0-60.908-55.426-104.412-112.371-94.242Z" fill="#949ed6"/>
      <path id="Path_86" data-name="Path 86" d="M240.222,201.3c-22.92-83.1-128.013-94.43-191.6-40.194A138.368,138.368,0,0,0,22.9,342.631a9.761,9.761,0,0,0,2.812,3.741,106.132,106.132,0,0,0,80.635,37.017h74.33v-21c0-21.964,9.487-42,26.714-56.407C238.316,280.114,250.9,240,240.222,201.3Z" fill="#9da9de"/>
      <path id="Path_87" data-name="Path 87" d="M503.927,251.275c-22.374-54.172-83.261-72.686-130.509-49.4-37.893,18.679-23.369,76.4,18.959,74.875a53.563,53.563,0,0,1,55.192,60.495,21.115,21.115,0,0,0,11.392,22.2l13.538,6.707,10.687-10.644c27.879-27.768,35.828-67.708,20.741-104.235Z" fill="#9da9de"/>
    </g>
    <rect id="Rectangle_6" data-name="Rectangle 6" width="554" height="554" transform="translate(6975 122)" fill="none"/>
  </g>
</svg>
