<svg xmlns="http://www.w3.org/2000/svg" width="511.451" height="405.502" viewBox="0 0 511.451 405.502">
  <g id="_011-night" data-name="011-night" transform="translate(0 -52.974)">
    <path id="Path_60" data-name="Path 60" d="M503.973,283.51c-50.434-43.005-49.954-120.395,0-162.991a21.008,21.008,0,0,0,.005-31.955c-83.4-71.16-212.436-30.189-240.5,74.778A149,149,0,0,0,503.98,315.463a21.008,21.008,0,0,0-.007-31.953Z" fill="#f1ebeb"/>
    <path id="Path_61" data-name="Path 61" d="M398.977,268.563C368.221,160.638,231.686,123.422,150.75,203.686,69.908,196.418.008,260.124.008,341.476A137.624,137.624,0,0,0,23.693,418.9a21.127,21.127,0,0,0,1.29,1.7,106.141,106.141,0,0,0,81.365,37.875h309.33a95.778,95.778,0,0,0,95.67-95.67c0-60.908-55.426-104.412-112.371-94.242Z" fill="#949ed6"/>
    <g id="Group_11" data-name="Group 11">
      <path id="Path_62" data-name="Path 62" d="M240.222,276.385c-22.92-83.1-128.013-94.43-191.6-40.194A138.368,138.368,0,0,0,22.9,417.718a9.761,9.761,0,0,0,2.812,3.741,106.132,106.132,0,0,0,80.635,37.017h74.33v-21c0-21.964,9.487-42,26.714-56.407,30.924-25.868,43.5-65.981,32.83-104.684Z" fill="#9da9de"/>
      <path id="Path_63" data-name="Path 63" d="M503.927,326.362c-22.374-54.172-83.261-72.686-130.509-49.4-37.893,18.679-23.369,76.4,18.959,74.875a53.563,53.563,0,0,1,55.192,60.495,21.115,21.115,0,0,0,11.392,22.2l13.538,6.707L483.186,430.6c27.879-27.768,35.828-67.709,20.741-104.235Z" fill="#9da9de"/>
    </g>
  </g>
</svg>
