<svg xmlns="http://www.w3.org/2000/svg" width="511.45" height="468.672" viewBox="0 0 511.45 468.672">
  <g id="_018-storm" data-name="018-storm" transform="translate(0 -21.389)">
    <g id="Group_18" data-name="Group 18">
      <path id="Path_106" data-name="Path 106" d="M117.014,426.061a21.018,21.018,0,0,1-19.925-27.646l10.667-32A21,21,0,1,1,147.6,379.7l-10.667,32a21.012,21.012,0,0,1-19.92,14.365Z" fill="#f1ebeb"/>
      <path id="Path_107" data-name="Path 107" d="M373.014,426.061a21.018,21.018,0,0,1-19.925-27.646l10.667-32A21,21,0,1,1,403.6,379.7l-10.667,32a21.012,21.012,0,0,1-19.92,14.365Z" fill="#f1ebeb"/>
      <path id="Path_108" data-name="Path 108" d="M159.681,490.061a21.018,21.018,0,0,1-19.925-27.646l10.667-32A21,21,0,1,1,190.268,443.7l-10.667,32a21.012,21.012,0,0,1-19.92,14.365Z" fill="#f1ebeb"/>
      <path id="Path_109" data-name="Path 109" d="M287.681,490.061a21.018,21.018,0,0,1-19.925-27.646l10.667-32A21,21,0,1,1,318.268,443.7l-10.667,32a21.012,21.012,0,0,1-19.92,14.365Z" fill="#f1ebeb"/>
    </g>
    <path id="Path_110" data-name="Path 110" d="M362.344,21.389c-82.159,0-149,66.841-149,149,0,82.512,67.017,149.039,149.152,149.039,80.808,0,148.848-65.54,148.848-149.039,0-82.159-66.841-149-149-149Z" fill="#ffe773"/>
    <path id="Path_111" data-name="Path 111" d="M493.277,99.235l-4.6-8.451-9.406-2.032C354.4,61.781,256.112,194.214,316.742,305.543l4.6,8.451,9.406,2.032a148.538,148.538,0,0,0,125.2-29.728c57.934-46.758,70.5-126.145,37.326-187.063Z" fill="#ffec8f"/>
    <path id="Path_112" data-name="Path 112" d="M398.977,193.476C368.221,85.551,231.686,48.335,150.75,128.6,69.908,121.332.008,185.037.008,266.389a137.624,137.624,0,0,0,23.685,77.422,21.127,21.127,0,0,0,1.29,1.7,106.141,106.141,0,0,0,81.365,37.875h309.33a95.778,95.778,0,0,0,95.67-95.67c0-60.908-55.426-104.412-112.371-94.242Z" fill="#949ed6"/>
    <path id="Path_113" data-name="Path 113" d="M240.222,201.3c-22.92-83.1-128.013-94.43-191.6-40.194A138.368,138.368,0,0,0,22.9,342.631a9.761,9.761,0,0,0,2.812,3.741,106.132,106.132,0,0,0,80.635,37.017h74.33v-21c0-21.964,9.487-42,26.714-56.407C238.316,280.114,250.9,240,240.222,201.3Z" fill="#9da9de"/>
    <path id="Path_114" data-name="Path 114" d="M503.927,251.275c-22.374-54.172-83.261-72.686-130.509-49.4-37.893,18.679-23.369,76.4,18.959,74.875a53.563,53.563,0,0,1,55.192,60.495,21.115,21.115,0,0,0,11.392,22.2l13.538,6.707,10.687-10.644c27.879-27.768,35.828-67.708,20.741-104.235Z" fill="#9da9de"/>
    <path id="Path_115" data-name="Path 115" d="M245.014,436.728a21.018,21.018,0,0,1-19.925-27.646l22.787-68.359h-2.864A21.007,21.007,0,0,1,224.42,315.6l10.667-53.333a21,21,0,0,1,41.184,8.236l-5.643,28.215h6.384a21.01,21.01,0,0,1,19.922,27.641l-32,96a21.011,21.011,0,0,1-19.92,14.364Z" fill="#ffe773"/>
  </g>
</svg>
