<svg xmlns="http://www.w3.org/2000/svg" width="554" height="554" viewBox="0 0 554 554">
  <g id="Group_45" data-name="Group 45" transform="translate(-6953 464)">
    <g id="_012-day" data-name="012-day" transform="translate(6974 -442.725)">
      <path id="Path_64" data-name="Path 64" d="M362.344,74.725c-82.159,0-149,66.841-149,149,0,82.512,67.017,149.039,149.152,149.039,80.808,0,148.848-65.54,148.848-149.039,0-82.158-66.841-149-149-149Z" fill="#ffe773"/>
      <path id="Path_65" data-name="Path 65" d="M493.277,152.571l-4.6-8.451-9.406-2.032C354.4,115.117,256.112,247.55,316.742,358.879l4.6,8.451,9.406,2.032a148.538,148.538,0,0,0,125.2-29.728c57.934-46.758,70.5-126.145,37.326-187.063Z" fill="#ffec8f"/>
      <path id="Path_66" data-name="Path 66" d="M398.977,246.813C368.221,138.888,231.686,101.672,150.75,181.936,69.908,174.668.008,238.374.008,319.725a137.624,137.624,0,0,0,23.685,77.422,21.127,21.127,0,0,0,1.29,1.7,106.141,106.141,0,0,0,81.365,37.875h309.33a95.778,95.778,0,0,0,95.67-95.67c0-60.908-55.426-104.412-112.371-94.241Z" fill="#949ed6"/>
      <g id="Group_12" data-name="Group 12">
        <path id="Path_67" data-name="Path 67" d="M240.222,254.634c-22.92-83.1-128.013-94.43-191.6-40.194A138.368,138.368,0,0,0,22.9,395.967a9.761,9.761,0,0,0,2.812,3.741,106.132,106.132,0,0,0,80.635,37.017h74.33v-21c0-21.964,9.487-42,26.714-56.407,30.924-25.868,43.5-65.981,32.83-104.684Z" fill="#9da9de"/>
        <path id="Path_68" data-name="Path 68" d="M503.927,304.611c-22.374-54.172-83.261-72.686-130.509-49.4-37.893,18.679-23.369,76.4,18.959,74.875a53.563,53.563,0,0,1,55.192,60.495,21.115,21.115,0,0,0,11.392,22.2L472.5,419.49l10.687-10.644c27.879-27.768,35.828-67.708,20.741-104.235Z" fill="#9da9de"/>
      </g>
    </g>
    <rect id="Rectangle_2" data-name="Rectangle 2" width="554" height="554" transform="translate(6953 -464)" fill="none"/>
  </g>
</svg>
